# xmcd
#
# Track frame offsets: 
#        150
#        17950
#        30413
#        44334
#        51896
#        68217
#        86082
#        94576
#        108586
#        117788
#        134941
#        150141
#        165592
#        180627
#        184698
#        197456
#        208965
#        223944
#        236972
#        251323
#        265197
#        269966
#        302927
#
# Disc length: 4215 seconds
#
# Revision: 0
# Processed by: cddbd v1.5.2PL0 Copyright (c) Steve Scherf et al.
# Submitted via: ExactAudioCopy v0.95b3
#
DISCID=56107517
DTITLE=Billie Holiday  - Volume 17 - 1949 - Complete Edition [Masters 
DTITLE=of Jazz]
DYEAR=1900
DGENRE=
TTITLE0=Good Morning Heartache
TTITLE1=Lover Man
TTITLE2=No More
TTITLE3=You're Driving Me Crazy
TTITLE4=Maybe You Will Be There
TTITLE5=I Wonder Where Our Love Has Gone
TTITLE6=Them There Eyes
TTITLE7=My Man (Mon Homme)
TTITLE8=Miss Brown To You
TTITLE9=Billie's Blues (I Love My Man)
TTITLE10='Tain't Nobody's Biz-ness If I Do
TTITLE11='Tain't Nobody's Biz-ness If I Do
TTITLE12=Baby Get Lost
TTITLE13=Billie's Blues (I Love My Man)
TTITLE14=Keeps On A-Rainin'
TTITLE15=Lover Man
TTITLE16=Keeps On A-Rainin'
TTITLE17=Them There Eyes
TTITLE18=Fine And Mellow
TTITLE19=I Loves You Porgy
TTITLE20=Them There Eyes
TTITLE21=Billie's Blues \\ Ole Miss
TTITLE22=That Ole Devil Called Love
EXTD=
EXTT0=
EXTT1=
EXTT2=
EXTT3=
EXTT4=
EXTT5=
EXTT6=
EXTT7=
EXTT8=
EXTT9=
EXTT10=
EXTT11=
EXTT12=
EXTT13=
EXTT14=
EXTT15=
EXTT16=
EXTT17=
EXTT18=
EXTT19=
EXTT20=
EXTT21=
EXTT22=
PLAYORDER=
